<?xml version="1.0" encoding="UTF-8" standalone="no"?><!DOCTYPE svg PUBLIC "-//W3C//DTD SVG 1.1//EN" "http://www.w3.org/Graphics/SVG/1.1/DTD/svg11.dtd"><svg width="100%" height="100%" viewBox="0 0 78 190" version="1.1" xmlns="http://www.w3.org/2000/svg" xmlns:xlink="http://www.w3.org/1999/xlink" xml:space="preserve" xmlns:serif="http://www.serif.com/" style="fill-rule:evenodd;clip-rule:evenodd;stroke-linejoin:round;stroke-miterlimit:2;"><g id="_171" serif:id="171"><path d="M24.647,109.533L24.665,109.51L44.158,83.604C47.66,78.95 52.161,75.485 57.141,73.285C57.151,73.281 57.161,73.276 57.17,73.271C61.973,70.941 66.309,67.466 69.738,62.91C81.277,47.575 78.195,25.757 62.86,14.218C47.525,2.679 25.706,5.761 14.167,21.096C6.506,31.278 5.29,44.319 9.828,55.312C9.831,55.318 9.833,55.325 9.836,55.332C15.133,67.324 13.964,81.756 5.529,92.966C5.21,93.39 4.884,93.805 4.55,94.212L4.375,94.439C0.181,100.013 1.301,107.942 6.874,112.135C12.447,116.329 20.377,115.209 24.57,109.636L24.647,109.533ZM23.386,109.674L23.391,109.677L23.386,109.674C19.392,114.344 12.392,115.161 7.415,111.416C2.239,107.521 1.199,100.157 5.094,94.981C5.144,94.914 5.195,94.848 5.246,94.783C5.588,94.366 5.922,93.941 6.248,93.507C14.886,82.027 16.084,67.248 10.66,54.968C6.239,44.26 7.423,31.556 14.887,21.637C26.127,6.699 47.38,3.697 62.319,14.937C77.257,26.177 80.259,47.431 69.018,62.369C65.679,66.807 61.456,70.191 56.777,72.462C51.661,74.722 47.037,78.281 43.439,83.063L23.851,109.095C23.701,109.294 23.546,109.487 23.386,109.674ZM23.422,109.702L23.429,109.706L23.422,109.702ZM36.791,48.862C32.54,45.664 31.686,39.615 34.885,35.365C38.083,31.114 44.131,30.259 48.382,33.458C52.633,36.657 53.487,42.705 50.289,46.956C47.09,51.206 41.042,52.061 36.791,48.862ZM37.332,48.143C33.478,45.243 32.704,39.76 35.604,35.906C38.504,32.052 43.987,31.277 47.841,34.177C51.695,37.077 52.469,42.56 49.57,46.414C46.67,50.268 41.186,51.043 37.332,48.143L37.332,48.143Z" style="fill:rgb(2,48,71);"/></g></svg>