<?xml version="1.0" encoding="UTF-8" standalone="no"?><!DOCTYPE svg PUBLIC "-//W3C//DTD SVG 1.1//EN" "http://www.w3.org/Graphics/SVG/1.1/DTD/svg11.dtd"><svg width="100%" height="100%" viewBox="0 0 78 190" version="1.1" xmlns="http://www.w3.org/2000/svg" xmlns:xlink="http://www.w3.org/1999/xlink" xml:space="preserve" xmlns:serif="http://www.serif.com/" style="fill-rule:evenodd;clip-rule:evenodd;stroke-linejoin:round;stroke-miterlimit:2;"><g id="der"><path d="M40.732,117.122L40.787,116.222C51.518,117.54 62.217,111.549 66.403,101.038C66.539,100.696 66.667,100.353 66.787,100.009C66.691,100.284 66.735,100.589 66.903,100.826C67.006,100.97 67.146,101.079 67.306,101.141L67.308,101.142C67.15,101.075 67.013,100.963 66.914,100.817C66.747,100.568 66.714,100.253 66.827,99.976C69.466,93.474 76.874,90.308 83.403,92.908C89.932,95.508 93.135,102.9 90.583,109.436L89.745,110.009L90.581,109.442C90.581,109.442 69.002,163.625 69.002,163.625C61.902,181.455 41.662,190.165 23.832,183.065C6.003,175.964 -2.708,155.724 4.393,137.895C10.344,122.95 25.528,114.412 40.784,116.222L40.73,117.122L40.678,117.115L40.677,117.116C40.498,117.094 40.318,117.074 40.136,117.056C39.996,116.841 39.875,116.698 39.841,116.782C39.808,116.867 39.788,116.947 39.78,117.022C25.226,115.69 10.91,123.962 5.229,138.228C-1.688,155.596 6.797,175.312 24.165,182.229C41.533,189.145 61.25,180.66 68.166,163.292L89.745,109.109L89.744,109.109C92.117,103.033 89.139,96.161 83.07,93.744C77.001,91.327 70.114,94.27 67.661,100.314L67.637,100.305C67.513,100.661 67.381,101.017 67.24,101.371C62.906,112.252 51.84,118.462 40.732,117.122ZM40.264,141.805C45.206,143.773 47.621,149.384 45.652,154.326C43.684,159.268 38.074,161.683 33.131,159.715C28.189,157.746 25.774,152.136 27.743,147.194C29.711,142.251 35.321,139.837 40.264,141.805ZM39.931,142.641C44.412,144.426 46.601,149.512 44.816,153.993C43.032,158.474 37.945,160.663 33.464,158.879C28.983,157.094 26.794,152.007 28.579,147.527C30.363,143.046 35.45,140.857 39.931,142.641L39.931,142.641ZM67.321,101.148L67.324,101.148L67.308,101.142L67.306,101.142L67.321,101.148Z" style="fill:rgb(2,48,71);"/></g></svg>