<svg width="155" height="20" viewBox="0 0 387 48" fill="none" xmlns="http://www.w3.org/2000/svg"><path d="M9.748 39.197h11.626v8.115H0V.652h9.748v38.545zm14.694 8.115V.652h9.749v46.66h-9.749zM62.785.652v8.115h-7.762v38.545h-9.748V8.803h-7.763V.653h25.273zm27.548 0v8.115H82.57v38.545h-9.748V8.803H65.06V.653h25.273zm13.033 38.545h11.626v8.115H93.618V.652h9.748v38.545zm24.443 0h13.286v8.115H118.06V.652h22.313v8.115h-12.564V19.96h11.697v8.115h-11.697v11.121zM173.697.652h9.748v46.66h-9.748V27.93h-7.293v19.38h-9.748V.653h9.748v19.2h7.293V.652zm14.117 23.475C187.814 8.875 192.868 0 201.353 0c8.556 0 13.539 8.875 13.539 24.127 0 15.07-4.983 23.873-13.539 23.873-8.521 0-13.539-8.803-13.539-23.873zm17.402 0c0-12.064-1.047-16.012-3.863-16.012-2.78 0-3.864 3.948-3.864 16.012 0 11.882 1.048 15.722 3.864 15.722 2.78 0 3.863-3.84 3.863-15.722zM240.67.652v8.115h-7.762v38.545h-9.749V8.803h-7.762V.653h25.273zm13.034 38.545h13.286v8.115h-23.034V.652h22.312v8.115h-12.564V19.96h11.697v8.115h-11.697v11.121zm26.969 0h11.626v8.115h-21.374V.652h9.748v38.545zm14.695 8.115V.652h9.748v46.66h-9.748zm25.092-8.115h13.286v8.115h-23.034V.652h22.312v8.115H320.46V19.96h11.698v8.115H320.46v11.121zm44.697 8.115h-10.578c-.614-13.078-1.517-14.056-5.308-14.056h-1.877v14.056h-9.748V.652h13.286c8.629 0 13.539 5.724 13.539 14.853 0 9.672-3.971 15.251-11.553 16.52 8.34.434 10.542 2.897 12.239 15.287zm-17.727-22.17h2.13c3.791 0 5.199-2.21 5.199-8.478 0-5.796-1.444-7.861-5.452-7.861h-1.877v16.338zm35.887 19.561V32.821h-9.784v11.882h-3.863v2.609H387v-2.609h-3.683z" fill="#000"/></svg>