<svg width="378" height="93" viewBox="0 0 378 93" fill="none" xmlns="http://www.w3.org/2000/svg">
<g clip-path="url(#clip0_95_4801)">
<mask id="mask0_95_4801" style="mask-type:luminance" maskUnits="userSpaceOnUse" x="0" y="0" width="378" height="93">
<path d="M377.5 0.5H0.5V92.5H377.5V0.5Z" fill="white"/>
</mask>
<g mask="url(#mask0_95_4801)">
<path d="M16.8147 23.9321C20.0249 22.3497 23.9238 21.5596 28.5105 21.5596V30.7538C27.9848 30.689 27.2649 30.6556 26.3475 30.6556C21.2372 30.6556 17.2235 32.1883 14.3084 35.2527C11.3922 38.3182 9.93516 42.6854 9.93516 48.3543V74.4571H0.5V22.0539H9.54245V30.8531C11.1788 27.8222 13.6045 25.5145 16.8147 23.9321Z" fill="#D0002E"/>
<path d="M48.8049 33.7211C45.7588 36.4897 43.9725 40.1153 43.4489 44.597H76.8647C76.3391 40.1812 74.5547 36.5727 71.5077 33.7707C68.4616 30.9696 64.6775 29.5686 60.1563 29.5686C55.636 29.5686 51.8519 30.9524 48.8049 33.7211ZM85.7098 51.4197H43.4489C44.0389 56.0341 46.0539 59.7428 49.4936 62.5428C52.9334 65.3459 57.2079 66.7459 62.3182 66.7459C68.5432 66.7459 73.5548 64.6368 77.3561 60.4175L82.564 66.5474C80.2057 69.316 77.2725 71.4261 73.7683 72.8748C70.2631 74.3265 66.348 75.0508 62.0232 75.0508C56.5202 75.0508 51.6384 73.9142 47.38 71.6399C43.1196 69.3656 39.8278 66.1857 37.5028 62.0981C35.1767 58.0126 34.0137 53.3972 34.0137 48.2561C34.0137 43.1808 35.1445 38.5998 37.4041 34.5122C39.6647 30.4257 42.7762 27.2447 46.7416 24.9705C50.705 22.6962 55.1769 21.5596 60.1563 21.5596C65.1346 21.5596 69.5743 22.6962 73.4732 24.9705C77.3712 27.2447 80.4182 30.4257 82.6134 34.5122C84.8075 38.5998 85.9061 43.28 85.9061 48.5529C85.9061 49.2782 85.8397 50.2335 85.7098 51.4197Z" fill="#D0002E"/>
<path d="M129.444 64.4225C132.13 62.8746 134.226 60.6986 135.735 57.8976C137.241 55.0955 137.995 51.8822 137.995 48.2565C137.995 44.6319 137.241 41.4186 135.735 38.6155C134.226 35.8155 132.13 33.6567 129.444 32.1402C126.758 30.6247 123.776 29.866 120.5 29.866C117.159 29.866 114.162 30.6247 111.508 32.1402C108.855 33.6567 106.756 35.8155 105.218 38.6155C103.678 41.4186 102.908 44.6319 102.908 48.2565C102.908 51.8822 103.678 55.0955 105.218 57.8976C106.756 60.6986 108.855 62.8746 111.508 64.4225C114.162 65.9715 117.159 66.7464 120.5 66.7464C123.776 66.7464 126.758 65.9715 129.444 64.4225ZM147.332 1.09375V74.4576H138.289V66.1528C136.192 69.0541 133.538 71.2615 130.328 72.777C127.118 74.2946 123.58 75.0513 119.714 75.0513C114.668 75.0513 110.148 73.9319 106.152 71.69C102.155 69.4492 99.026 66.3007 96.7654 62.2476C94.5058 58.1934 93.375 53.5304 93.375 48.2565C93.375 42.9837 94.5058 38.3369 96.7654 34.3152C99.026 30.2955 102.155 27.1642 106.152 24.9224C110.148 22.6815 114.668 21.5601 119.714 21.5601C123.449 21.5601 126.888 22.2692 130.034 23.6865C133.179 25.1037 135.799 27.1956 137.896 29.9642V1.09375H147.332Z" fill="#D0002E"/>
<path d="M175.045 17.5058V22.0543H190.18V29.8648H175.241V74.4575H165.806V29.8648H156.961V22.0543H165.806V17.4066C165.806 12.2006 167.312 8.08054 170.327 5.04752C173.34 2.01652 177.566 0.5 183.006 0.5C185.101 0.5 187.067 0.764407 188.903 1.29118C190.736 1.81897 192.308 2.57573 193.62 3.56445L190.769 10.7823C188.607 9.13613 186.183 8.3105 183.497 8.3105C177.861 8.3105 175.045 11.376 175.045 17.5058Z" fill="#1F2937"/>
<path d="M228.853 64.422C231.506 62.8741 233.586 60.6981 235.094 57.8971C236.6 55.095 237.355 51.8817 237.355 48.2561C237.355 44.6314 236.6 41.4181 235.094 38.615C233.586 35.815 231.506 33.6562 228.853 32.1397C226.2 30.6242 223.202 29.8655 219.86 29.8655C216.519 29.8655 213.521 30.6242 210.868 32.1397C208.214 33.6562 206.116 35.815 204.578 38.615C203.038 41.4181 202.268 44.6314 202.268 48.2561C202.268 51.8817 203.038 55.095 204.578 57.8971C206.116 60.6981 208.214 62.8741 210.868 64.422C213.521 65.971 216.519 66.7459 219.86 66.7459C223.202 66.7459 226.2 65.971 228.853 64.422ZM205.904 71.5902C201.777 69.2836 198.549 66.1026 196.223 62.0485C193.897 57.9953 192.734 53.3972 192.734 48.2561C192.734 43.1139 193.897 38.5168 196.223 34.4626C198.549 30.4095 201.777 27.2448 205.904 24.9715C210.033 22.6972 214.684 21.5596 219.86 21.5596C225.035 21.5596 229.671 22.6972 233.767 24.9715C237.861 27.2448 241.072 30.4095 243.398 34.4626C245.723 38.5168 246.887 43.1139 246.887 48.2561C246.887 53.3972 245.723 57.9953 243.398 62.0485C241.072 66.1026 237.861 69.2836 233.767 71.5902C229.671 73.8979 225.035 75.0508 219.86 75.0508C214.684 75.0508 210.033 73.8979 205.904 71.5902Z" fill="#1F2937"/>
<path d="M275.488 23.9321C278.698 22.3497 282.597 21.5596 287.183 21.5596V30.7538C286.659 30.689 285.938 30.6556 285.021 30.6556C279.911 30.6556 275.896 32.1883 272.982 35.2527C270.065 38.3182 268.608 42.6854 268.608 48.3543V74.4571H259.174V22.0539H268.215V30.8531C269.852 27.8222 272.277 25.5145 275.488 23.9321Z" fill="#1F2937"/>
<path d="M329.442 71.3923C328.067 72.5786 326.361 73.4853 324.332 74.1113C322.3 74.7374 320.204 75.0504 318.043 75.0504C312.799 75.0504 308.737 73.6342 305.855 70.7987C302.972 67.9652 301.531 63.9121 301.531 58.6372V29.8651H292.686V22.0536H301.531V10.585H310.966V22.0536H325.904V29.8651H310.966V58.2422C310.966 61.0766 311.67 63.2526 313.078 64.7681C314.486 66.2846 316.501 67.0414 319.123 67.0414C322.005 67.0414 324.463 66.2188 326.494 64.5706L329.442 71.3923Z" fill="#1F2937"/>
<path d="M342.71 73.3205C338.778 72.1677 335.697 70.6998 333.471 68.9199L337.402 61.4062C339.695 63.0545 342.479 64.3724 345.756 65.3611C349.031 66.3498 352.34 66.8442 355.682 66.8442C363.938 66.8442 368.066 64.4717 368.066 59.7256C368.066 58.1433 367.508 56.8922 366.394 55.9683C365.279 55.0454 363.889 54.3707 362.218 53.9412C360.548 53.5127 358.171 53.0366 355.093 52.5078C350.899 51.8493 347.475 51.0916 344.822 50.2335C342.169 49.3775 339.891 47.9268 337.991 45.8825C336.091 43.8403 335.141 40.9734 335.141 37.2809C335.141 32.5348 337.108 28.7278 341.039 25.861C344.969 22.9931 350.243 21.5596 356.862 21.5596C360.333 21.5596 363.805 21.9891 367.279 22.8451C370.752 23.7032 373.602 24.857 375.83 26.3057L371.8 33.8204C367.54 31.0517 362.528 29.6679 356.764 29.6679C352.766 29.6679 349.719 30.3274 347.623 31.6444C345.526 32.9643 344.479 34.7098 344.479 36.8848C344.479 38.5998 345.068 39.9502 346.248 40.9389C347.427 41.9276 348.884 42.654 350.62 43.1139C352.356 43.5758 354.798 44.1026 357.943 44.6963C362.135 45.4226 365.525 46.1966 368.114 47.0202C370.703 47.8448 372.913 49.2438 374.748 51.2222C376.582 53.1997 377.501 55.9683 377.501 59.5281C377.501 64.2731 375.486 68.0477 371.456 70.8487C367.427 73.6508 361.938 75.0508 354.994 75.0508C350.735 75.0508 346.64 74.4734 342.71 73.3205Z" fill="#1F2937"/>
<path d="M239.952 92.5001H199.674V83.4375H239.952V92.5001Z" fill="#D0002E"/>
</g>
</g>
<defs>
<clipPath id="clip0_95_4801">
<rect width="377" height="92" fill="white" transform="translate(0.5 0.5)"/>
</clipPath>
</defs>
</svg>
